HIERARCHY
ROOT Hips
{
	OFFSET -14.64140 90.27770 -84.91600
	CHANNELS 6 Xposition Yposition Zposition Zrotation Xrotation Yrotation
	JOINT Spine
	{
		OFFSET 0.00000 13.20850 -1.60436
		CHANNELS 3 Zrotation Xrotation Yrotation
		JOINT Spine1
		{
			OFFSET 0.00000 8.61716 0.00000
			CHANNELS 3 Zrotation Xrotation Yrotation
			JOINT Spine2
			{
				OFFSET 0.00000 8.61717 0.00000
				CHANNELS 3 Zrotation Xrotation Yrotation
				JOINT Spine3
				{
					OFFSET 0.00000 8.61717 0.00000
					CHANNELS 3 Zrotation Xrotation Yrotation
					JOINT Neck
					{
						OFFSET 0.00000 11.07920 1.10792
						CHANNELS 3 Zrotation Xrotation Yrotation
						JOINT Neck1
						{
							OFFSET 0.00000 7.08032 0.00000
							CHANNELS 3 Zrotation Xrotation Yrotation
							JOINT Head
							{
								OFFSET 0.00000 7.08031 0.00000
								CHANNELS 3 Zrotation Xrotation Yrotation
								End site
								{
									OFFSET 0.00000 0.00000 0.00000
								}
							}
						}
					}
					JOINT RightShoulder
					{
						OFFSET -0.01000 7.91373 5.19711
						CHANNELS 3 Zrotation Xrotation Yrotation
						JOINT RightArm
						{
							OFFSET -18.41580 0.00000 0.00000
							CHANNELS 3 Zrotation Xrotation Yrotation
							JOINT RightForeArm
							{
								OFFSET -29.11090 0.00000 0.00000
								CHANNELS 3 Zrotation Xrotation Yrotation
								JOINT RightHand
								{
									OFFSET -24.65040 0.00000 0.00000
									CHANNELS 3 Zrotation Xrotation Yrotation
									JOINT RightHandThumb1
									{
										OFFSET -5.35114 -0.85590 3.97906
										CHANNELS 3 Zrotation Xrotation Yrotation
										JOINT RightHandThumb2
										{
											OFFSET -4.52789 0.00000 0.00000
											CHANNELS 3 Zrotation Xrotation Yrotation
											JOINT RightHandThumb3
											{
												OFFSET -2.46976 0.00000 0.00000
												CHANNELS 3 Zrotation Xrotation Yrotation
												End site
												{
													OFFSET 0.00000 0.00000 0.00000
												}
											}
										}
									}
									JOINT RightHandIndex1
									{
										OFFSET -14.26970 0.00000 2.88139
										CHANNELS 3 Zrotation Xrotation Yrotation
										JOINT RightHandIndex2
										{
											OFFSET -5.48836 0.00000 0.00000
											CHANNELS 3 Zrotation Xrotation Yrotation
											JOINT RightHandIndex3
											{
												OFFSET -3.01859 0.00000 0.00000
												CHANNELS 3 Zrotation Xrotation Yrotation
												End site
												{
													OFFSET 0.00000 0.00000 0.00000
												}
											}
										}
									}
									JOINT RightHandMiddle1
									{
										OFFSET -14.26970 0.00000 -0.09147
										CHANNELS 3 Zrotation Xrotation Yrotation
										JOINT RightHandMiddle2
										{
											OFFSET -6.17441 0.00000 0.00000
											CHANNELS 3 Zrotation Xrotation Yrotation
											JOINT RightHandMiddle3
											{
												OFFSET -3.56743 0.00000 0.00000
												CHANNELS 3 Zrotation Xrotation Yrotation
												End site
												{
													OFFSET 0.00000 0.00000 0.00000
												}
											}
										}
									}
									JOINT RightHandRing1
									{
										OFFSET -12.69180 0.00000 -3.06433
										CHANNELS 3 Zrotation Xrotation Yrotation
										JOINT RightHandRing2
										{
											OFFSET -5.62556 0.00000 0.00000
											CHANNELS 3 Zrotation Xrotation Yrotation
											JOINT RightHandRing3
											{
												OFFSET -3.56744 0.00000 0.00000
												CHANNELS 3 Zrotation Xrotation Yrotation
												End site
												{
													OFFSET 0.00000 0.00000 0.00000
												}
											}
										}
									}
									JOINT RightHandPinky1
									{
										OFFSET -11.11390 0.00000 -6.03719
										CHANNELS 3 Zrotation Xrotation Yrotation
										JOINT RightHandPinky2
										{
											OFFSET -4.52789 0.00000 0.00000
											CHANNELS 3 Zrotation Xrotation Yrotation
											JOINT RightHandPinky3
											{
												OFFSET -2.46976 0.00000 0.00000
												CHANNELS 3 Zrotation Xrotation Yrotation
												End site
												{
													OFFSET 0.00000 0.00000 0.00000
												}
											}
										}
									}
								}
							}
						}
					}
					JOINT LeftShoulder
					{
						OFFSET 0.01000 7.91373 5.19711
						CHANNELS 3 Zrotation Xrotation Yrotation
						JOINT LeftArm
						{
							OFFSET 18.41580 0.00000 0.00000
							CHANNELS 3 Zrotation Xrotation Yrotation
							JOINT LeftForeArm
							{
								OFFSET 29.11090 0.00000 0.00000
								CHANNELS 3 Zrotation Xrotation Yrotation
								JOINT LeftHand
								{
									OFFSET 24.65040 0.00000 0.00000
									CHANNELS 3 Zrotation Xrotation Yrotation
									JOINT LeftHandThumb1
									{
										OFFSET 5.35114 -0.85590 3.97906
										CHANNELS 3 Zrotation Xrotation Yrotation
										JOINT LeftHandThumb2
										{
											OFFSET 4.52789 0.00000 0.00000
											CHANNELS 3 Zrotation Xrotation Yrotation
											JOINT LeftHandThumb3
											{
												OFFSET 2.46977 0.00000 0.00000
												CHANNELS 3 Zrotation Xrotation Yrotation
												End site
												{
													OFFSET 0.00000 0.00000 0.00000
												}
											}
										}
									}
									JOINT LeftHandIndex1
									{
										OFFSET 14.26970 0.00000 2.88139
										CHANNELS 3 Zrotation Xrotation Yrotation
										JOINT LeftHandIndex2
										{
											OFFSET 5.48836 0.00000 0.00000
											CHANNELS 3 Zrotation Xrotation Yrotation
											JOINT LeftHandIndex3
											{
												OFFSET 3.01859 0.00000 0.00000
												CHANNELS 3 Zrotation Xrotation Yrotation
												End site
												{
													OFFSET 0.00000 0.00000 0.00000
												}
											}
										}
									}
									JOINT LeftHandMiddle1
									{
										OFFSET 14.26970 0.00000 -0.09147
										CHANNELS 3 Zrotation Xrotation Yrotation
										JOINT LeftHandMiddle2
										{
											OFFSET 6.17440 0.00000 0.00000
											CHANNELS 3 Zrotation Xrotation Yrotation
											JOINT LeftHandMiddle3
											{
												OFFSET 3.56744 0.00000 0.00000
												CHANNELS 3 Zrotation Xrotation Yrotation
												End site
												{
													OFFSET 0.00000 0.00000 0.00000
												}
											}
										}
									}
									JOINT LeftHandRing1
									{
										OFFSET 12.69180 0.00000 -3.06433
										CHANNELS 3 Zrotation Xrotation Yrotation
										JOINT LeftHandRing2
										{
											OFFSET 5.62556 0.00000 0.00000
											CHANNELS 3 Zrotation Xrotation Yrotation
											JOINT LeftHandRing3
											{
												OFFSET 3.56744 0.00000 0.00000
												CHANNELS 3 Zrotation Xrotation Yrotation
												End site
												{
													OFFSET 0.00000 0.00000 0.00000
												}
											}
										}
									}
									JOINT LeftHandPinky1
									{
										OFFSET 11.11390 0.00000 -6.03719
										CHANNELS 3 Zrotation Xrotation Yrotation
										JOINT LeftHandPinky2
										{
											OFFSET 4.52789 0.00000 0.00000
											CHANNELS 3 Zrotation Xrotation Yrotation
											JOINT LeftHandPinky3
											{
												OFFSET 2.46976 0.00000 0.00000
												CHANNELS 3 Zrotation Xrotation Yrotation
												End site
												{
													OFFSET 0.00000 0.00000 0.00000
												}
											}
										}
									}
								}
							}
						}
					}
					JOINT pCube4
					{
						OFFSET 0.00000 10.91090 1.10792
						CHANNELS 3 Zrotation Xrotation Yrotation
						End site
						{
							OFFSET 0.00000 0.00000 0.00000
						}
					}
				}
			}
		}
	}
	JOINT RightUpLeg
	{
		OFFSET -9.98441 0.00000 0.00000
		CHANNELS 3 Zrotation Xrotation Yrotation
		JOINT RightLeg
		{
			OFFSET 0.00000 -42.11790 0.00000
			CHANNELS 3 Zrotation Xrotation Yrotation
			JOINT RightFoot
			{
				OFFSET 0.00000 -45.00020 -0.00001
				CHANNELS 3 Zrotation Xrotation Yrotation
				JOINT RightForeFoot
				{
					OFFSET 0.00000 -3.74820 0.00000
					CHANNELS 3 Zrotation Xrotation Yrotation
					JOINT RightToeBase
					{
						OFFSET 0.00000 0.06325 14.43120
						CHANNELS 3 Zrotation Xrotation Yrotation
						End site
						{
							OFFSET 0.00000 0.00000 0.00000
						}
					}
				}
			}
		}
	}
	JOINT LeftUpLeg
	{
		OFFSET 9.98441 0.00000 0.00000
		CHANNELS 3 Zrotation Xrotation Yrotation
		JOINT LeftLeg
		{
			OFFSET 0.00000 -42.11800 0.00000
			CHANNELS 3 Zrotation Xrotation Yrotation
			JOINT LeftFoot
			{
				OFFSET 0.00000 -45.00070 0.00000
				CHANNELS 3 Zrotation Xrotation Yrotation
				JOINT LeftForeFoot
				{
					OFFSET 0.00000 -3.74824 0.00000
					CHANNELS 3 Zrotation Xrotation Yrotation
					JOINT LeftToeBase
					{
						OFFSET 0.00000 0.06325 14.43110
						CHANNELS 3 Zrotation Xrotation Yrotation
						End site
						{
							OFFSET 0.00000 0.00000 0.00000
						}
					}
				}
			}
		}
	}
}
MOTION
Frames: 4
Frame Time: 0.050000
0.0 0.0 0.0 -0.0 0.0 -0.0 -3.4494717535490222 9.858937803828837 -0.4642796577647038 -0.4098673561228883 2.534199641687917 0.20172618140308518 -0.5326690979805406 0.8162713642748276 -3.5027490576452847 2.0618477774367547 1.2759868127330156 -2.0153485524312 0.7764390729122084 5.830435932858631 -3.736439008147086 -0.3699370492773104 -2.9571545468678435 -9.95847286352559 0.25979158366249205 -18.120779357821004 -0.8064491730390755 12.962444706184561 -3.211443421522854 -13.729329065203828 62.05366426517631 13.669936520092842 0.5014714153388847 33.67206743387747 13.81410428004111 109.16927221689514 7.705963873534679 -0.05280232884051049 -11.311478787359441 18.9311 2.54346 7.37475 -9.04371e-06 3.54899e-06 -4.32387e-05 -3.68096e-08 -1.66657e-06 -4.96815e-07 23.5337 6.68949e-08 -1.01697e-06 2.75368e-05 2.14518e-06 1.42979e-06 2.73329e-16 1.59028e-15 -3.97569e-16 22.1614 -9.89811e-07 5.49825e-08 3.40419e-15 1.59028e-15 -0.0 2.41026e-15 1.59028e-15 3.97569e-16 19.9077 2.27295e-07 -7.36555e-07 -4.32225e-08 -2.16218e-07 3.64607e-07 4.32225e-08 2.16218e-07 -3.64607e-07 38.193 -4.53822e-07 1.24383e-06 2.19231e-07 -1.66512e-07 -1.8884e-06 1.20312e-08 1.09974e-06 -4.77587e-07 -9.524242866201961 -1.4368575044930418 8.529339938970907 -61.063641631402035 49.08617236835984 -5.23863301104905 -62.98427610356694 9.260700490065092 -95.67136845083377 -14.583410618033875 0.1382594670448505 2.762336438116012 -51.241 -2.15194 1.733 -1.00229e-07 2.61503e-08 2.56766e-08 2.50573e-07 -6.53758e-08 -6.41915e-08 -98.905 3.07283e-06 5.77793e-06 -3.46694e-07 3.93323e-06 -9.36473e-07 -4.17448e-15 3.18055e-15 -1.98785e-15 -114.954 1.95246e-07 -1.12147e-06 -5.19297e-05 -6.62049e-09 1.05888e-07 3.18055e-15 3.18055e-15 -3.18055e-15 -76.4715 4.54206e-06 1.80044e-06 -1.02088e-06 -4.55624e-07 1.06351e-06 -7.15625e-15 9.54166e-15 -4.77083e-15 -60.0813 1.77514e-06 3.7447e-07 -5.74098e-06 1.2485e-06 3.00368e-06 8.066e-07 -1.8194e-07 -2.04785e-07 -1.63997e-15 0.0 -0.0 -8.11753 -22.1861 -12.106 2.32833e-05 12.3778 2.61784e-06 5.49049 -9.10614 0.712091 7.45443e-16 0.0 -1.98785e-16 -1.23443e-07 5.39368 -7.43938e-09 -0.0574809 0.352809 21.6824 -1.80349e-06 24.9058 -3.38722e-05 -7.98143 -15.8052 -1.32255 7.95139e-16 0.0 9.54166e-15 -2.108e-07 -11.4331 6.95949e-06
0.0 0.0 0.0 -0.0 0.0 -0.0 -3.1192510712189674 9.740826355212327 -0.4938532299704132 -0.36610997851448585 2.4747499831965687 0.1842482804650508 -0.48274332066370973 0.794095888566932 -3.495485226388768 1.9956675154566392 1.1922960027234557 -1.9975954390953963 0.7506221089712074 5.606656150133489 -3.3044491074169873 -0.308844722962335 -2.7152513129276863 -8.780970263840995 0.2009560994914789 -17.674565907612514 -0.7099776771032168 12.869398524020285 -3.1546712226924862 -13.600070612734996 62.679162727276385 13.45369802305831 -0.19879500871186037 38.10008125092059 14.95006241901814 107.84371720547807 6.836845247581573 -0.09413920860888783 -10.486172511602176 18.9311 2.54346 7.37475 -9.04371e-06 3.54899e-06 -4.32387e-05 -3.68096e-08 -1.66657e-06 -4.96815e-07 23.5337 6.68949e-08 -1.01697e-06 2.75368e-05 2.14518e-06 1.42979e-06 2.73329e-16 1.59028e-15 -3.97569e-16 22.1614 -9.89811e-07 5.49825e-08 3.40419e-15 1.59028e-15 -0.0 2.41026e-15 1.59028e-15 3.97569e-16 19.9077 2.27295e-07 -7.36555e-07 -4.32225e-08 -2.16218e-07 3.64607e-07 4.32225e-08 2.16218e-07 -3.64607e-07 38.193 -4.53822e-07 1.24383e-06 2.19231e-07 -1.66512e-07 -1.8884e-06 1.20312e-08 1.09974e-06 -4.77587e-07 -9.548078000384049 -1.4394792432222256 8.533933687758754 -62.11683673997849 48.920211959903135 -4.457259182926214 -62.60524443771649 10.336587818449047 -96.42300816165722 -14.895225488501586 0.023221505763176303 3.5519000580990845 -51.241 -2.15194 1.733 -1.00229e-07 2.61503e-08 2.56766e-08 2.50573e-07 -6.53758e-08 -6.41915e-08 -98.905 3.07283e-06 5.77793e-06 -3.46694e-07 3.93323e-06 -9.36473e-07 -4.17448e-15 3.18055e-15 -1.98785e-15 -114.954 1.95246e-07 -1.12147e-06 -5.19297e-05 -6.62049e-09 1.05888e-07 3.18055e-15 3.18055e-15 -3.18055e-15 -76.4715 4.54206e-06 1.80044e-06 -1.02088e-06 -4.55624e-07 1.06351e-06 -7.15625e-15 9.54166e-15 -4.77083e-15 -60.0813 1.77514e-06 3.7447e-07 -5.74098e-06 1.2485e-06 3.00368e-06 8.066e-07 -1.8194e-07 -2.04785e-07 -1.63997e-15 0.0 -0.0 -8.11753 -22.1861 -12.106 2.32833e-05 12.3778 2.61784e-06 5.49049 -9.10614 0.712091 7.45443e-16 0.0 -1.98785e-16 -1.23443e-07 5.39368 -7.43938e-09 -0.0574809 0.352809 21.6824 -1.80349e-06 24.9058 -3.38722e-05 -7.98143 -15.8052 -1.32255 7.95139e-16 0.0 9.54166e-15 -2.108e-07 -11.4331 6.95949e-06
0.0 0.0 0.0 -0.0 0.0 -0.0 -2.5730770286713947 9.652079855448207 -0.5238021442982423 -0.3317418872209876 2.4633204973864293 0.16763697922766843 -0.4126853860486112 0.778873472540903 -3.6281765411975644 1.9691955388002258 1.0836142923607597 -2.0206128394813256 0.572265366617198 5.430379207603515 -2.6700990239569053 -0.35803829773913765 -2.601178986879796 -7.406931514124297 -0.028465270987943433 -17.407990834505757 -0.5810384986649582 12.961363183294525 -3.1743949303549948 -13.548213612847832 62.64834002237179 13.843903795121069 -0.3297756413274186 40.785852680987084 15.818336522146216 107.67419982835443 6.52956950953936 -0.08626668426509872 -9.3989363071597 18.9311 2.54346 7.37475 -9.04371e-06 3.54899e-06 -4.32387e-05 -3.68096e-08 -1.66657e-06 -4.96815e-07 23.5337 6.68949e-08 -1.01697e-06 2.75368e-05 2.14518e-06 1.42979e-06 2.73329e-16 1.59028e-15 -3.97569e-16 22.1614 -9.89811e-07 5.49825e-08 3.40419e-15 1.59028e-15 -0.0 2.41026e-15 1.59028e-15 3.97569e-16 19.9077 2.27295e-07 -7.36555e-07 -4.32225e-08 -2.16218e-07 3.64607e-07 4.32225e-08 2.16218e-07 -3.64607e-07 38.193 -4.53822e-07 1.24383e-06 2.19231e-07 -1.66512e-07 -1.8884e-06 1.20312e-08 1.09974e-06 -4.77587e-07 -9.43964548613972 -1.4172089228962916 8.50690447750003 -63.181167416908565 49.4249343176931 -3.838990711537106 -64.51892868113558 11.398471349708094 -96.8010519320422 -13.875189352788325 -0.08419651948362425 3.314320901215664 -51.241 -2.15194 1.733 -1.00229e-07 2.61503e-08 2.56766e-08 2.50573e-07 -6.53758e-08 -6.41915e-08 -98.905 3.07283e-06 5.77793e-06 -3.46694e-07 3.93323e-06 -9.36473e-07 -4.17448e-15 3.18055e-15 -1.98785e-15 -114.954 1.95246e-07 -1.12147e-06 -5.19297e-05 -6.62049e-09 1.05888e-07 3.18055e-15 3.18055e-15 -3.18055e-15 -76.4715 4.54206e-06 1.80044e-06 -1.02088e-06 -4.55624e-07 1.06351e-06 -7.15625e-15 9.54166e-15 -4.77083e-15 -60.0813 1.77514e-06 3.7447e-07 -5.74098e-06 1.2485e-06 3.00368e-06 8.066e-07 -1.8194e-07 -2.04785e-07 -1.63997e-15 0.0 -0.0 -8.11753 -22.1861 -12.106 2.32833e-05 12.3778 2.61784e-06 5.49049 -9.10614 0.712091 7.45443e-16 0.0 -1.98785e-16 -1.23443e-07 5.39368 -7.43938e-09 -0.0574809 0.352809 21.6824 -1.80349e-06 24.9058 -3.38722e-05 -7.98143 -15.8052 -1.32255 7.95139e-16 0.0 9.54166e-15 -2.108e-07 -11.4331 6.95949e-06
0.0 0.0 0.0 -0.0 0.0 -0.0 -2.319764106732618 9.587930909206113 -0.5006990618034624 -0.29385453653609633 2.484098437728672 0.1503937035635672 -0.34044313750012084 0.7725116949765953 -3.6656893765503713 1.9464454670889586 1.0081148296285476 -2.0302412761509916 0.3405194618960048 5.209178313506554 -1.9024104283654428 -0.4005635276310251 -2.6251956402502854 -5.9857859087086425 -0.1890527725384759 -17.52999250317143 -0.4600008700506473 13.34583987658979 -3.2072645371537116 -13.256086194743384 62.25181590777039 14.799854846225488 -0.3047495784350937 41.48698751845163 15.940305543505964 107.77115023165699 6.780355858725627 -0.036346253856687154 -9.316408863317077 18.9311 2.54346 7.37475 -9.04371e-06 3.54899e-06 -4.32387e-05 -3.68096e-08 -1.66657e-06 -4.96815e-07 23.5337 6.68949e-08 -1.01697e-06 2.75368e-05 2.14518e-06 1.42979e-06 2.73329e-16 1.59028e-15 -3.97569e-16 22.1614 -9.89811e-07 5.49825e-08 3.40419e-15 1.59028e-15 -0.0 2.41026e-15 1.59028e-15 3.97569e-16 19.9077 2.27295e-07 -7.36555e-07 -4.32225e-08 -2.16218e-07 3.64607e-07 4.32225e-08 2.16218e-07 -3.64607e-07 38.193 -4.53822e-07 1.24383e-06 2.19231e-07 -1.66512e-07 -1.8884e-06 1.20312e-08 1.09974e-06 -4.77587e-07 -9.049549473559676 -1.3603652894760319 8.484308110690515 -63.715445103540866 51.32910585775743 -3.3645151050691733 -67.57144590839978 12.759757630189858 -97.29720731966597 -13.586488640484966 -0.12797745053197015 2.7578736874841976 -51.241 -2.15194 1.733 -1.00229e-07 2.61503e-08 2.56766e-08 2.50573e-07 -6.53758e-08 -6.41915e-08 -98.905 3.07283e-06 5.77793e-06 -3.46694e-07 3.93323e-06 -9.36473e-07 -4.17448e-15 3.18055e-15 -1.98785e-15 -114.954 1.95246e-07 -1.12147e-06 -5.19297e-05 -6.62049e-09 1.05888e-07 3.18055e-15 3.18055e-15 -3.18055e-15 -76.4715 4.54206e-06 1.80044e-06 -1.02088e-06 -4.55624e-07 1.06351e-06 -7.15625e-15 9.54166e-15 -4.77083e-15 -60.0813 1.77514e-06 3.7447e-07 -5.74098e-06 1.2485e-06 3.00368e-06 8.066e-07 -1.8194e-07 -2.04785e-07 -1.63997e-15 0.0 -0.0 -8.11753 -22.1861 -12.106 2.32833e-05 12.3778 2.61784e-06 5.49049 -9.10614 0.712091 7.45443e-16 0.0 -1.98785e-16 -1.23443e-07 5.39368 -7.43938e-09 -0.0574809 0.352809 21.6824 -1.80349e-06 24.9058 -3.38722e-05 -7.98143 -15.8052 -1.32255 7.95139e-16 0.0 9.54166e-15 -2.108e-07 -11.4331 6.95949e-06
